<svg width="76" height="96" fill="none" xmlns="http://www.w3.org/2000/svg"><path fill-rule="evenodd" clip-rule="evenodd" d="M37.997 0c-9 .001-17.683 2.527-22.73 6.316-4.735 3.553-7.002 9.364-3.795 18.947.147.439.286.837.415 1.208.985 2.827 1.422 4.082.853 10.16-.269 2.87-2.145 5.557-4.373 8.75C4.71 50.62.104 57.22.104 68.21.104 89.68 20.309 95.999 37.997 96m.006-96c9 .001 17.683 2.527 22.73 6.316 4.735 3.553 7.002 9.364 3.795 18.947-.147.439-.286.837-.415 1.208-.985 2.827-1.422 4.082-.853 10.16.269 2.87 2.145 5.557 4.373 8.75 3.657 5.24 8.264 11.839 8.264 22.829 0 21.471-20.206 27.789-37.894 27.79m0-96h-.006.006Z" fill="#13141A"/></svg>