<svg width="130" height="52" fill="none" xmlns="http://www.w3.org/2000/svg"><g clip-path="url(#a)" fill-rule="evenodd" clip-rule="evenodd"><path d="M10.617 29.28c-3.498 0-7.553 1.672-9.75 3.406l2.012 4.21c1.764-1.61 4.611-2.972 7.18-2.972 2.446 0 3.777.804 3.777 2.445 0 1.114-.898 1.671-2.57 1.888C4.953 39.062 0 40.795 0 45.655c0 3.838 2.755 6.19 7.026 6.19 3.065 0 5.788-1.702 7.088-3.93v3.311h5.695V37.328c0-5.726-3.992-8.047-9.192-8.047ZM8.48 47.389c-1.61 0-2.414-.774-2.414-2.074 0-2.414 2.693-3.219 7.614-3.745.03 3.219-2.167 5.819-5.2 5.819Zm65.03-13.898V29.9h-5.694v21.326h6.097V40.95c0-4.89 2.94-6.314 5.015-6.314.804 0 1.888.247 2.6.773l1.114-5.633c-.929-.402-1.92-.495-2.724-.495-3.126 0-5.107 1.393-6.407 4.21Zm37.422-4.21c-3.219 0-5.633 1.92-6.902 3.746-1.176-2.383-3.621-3.745-6.593-3.745-3.219 0-5.448 1.795-6.5 3.838v-3.22h-5.88v21.327h6.097V40.238c0-3.931 2.074-5.82 3.993-5.82 1.733 0 3.343 1.115 3.343 4.025v12.783h6.128V40.238c0-3.993 2.012-5.82 4.024-5.82 1.609 0 3.312 1.177 3.312 3.994v12.814h6.097V36.493c0-4.798-3.219-7.212-7.119-7.212Zm-69.58-.959V29.9h-9.255v-2.167c0-2.816 1.61-3.621 3.002-3.621.805 0 1.857.186 2.724.68l1.888-4.302c-1.114-.65-2.94-1.238-5.386-1.238-3.9 0-8.326 2.198-8.326 9.1v1.579h-3.529v4.705H26v16.59h6.098V34.605h9.254v16.621h6.098V34.605h5.54V29.9h-5.54v-2.167c0-2.816 1.61-3.621 3.002-3.621 1.548 0 2.724.68 2.724.68l1.888-4.302s-1.919-1.238-5.385-1.238c-3.87-.03-8.327 2.167-8.327 9.07ZM56.611 29.9h6.097v21.326h-6.097V29.9Z" fill="#060809"/><path d="M92.145.155c-16.467 0-31.138 11.421-35.286 26.124h5.974C66.3 15.32 78.093 5.726 92.145 5.726c17.086 0 31.819 13 31.819 33.243 0 4.55-.588 8.636-1.702 12.257h5.788l.062-.185c.959-3.746 1.424-7.8 1.424-12.072 0-22.564-16.436-38.814-37.39-38.814Z" fill="#0FA0EA"/></g><defs><clipPath id="a"><path fill="#fff" transform="translate(0 .155)" d="M0 0h130v51.691H0z"/></clipPath></defs></svg>