<svg version="1.2" baseProfile="tiny-ps" xmlns="http://www.w3.org/2000/svg" width="76" height="31"><path fill-rule="evenodd" d="M11.5 21.57v8.07H8.19v-1.92C7.44 29.01 5.86 30 4.08 30 1.6 30 0 28.63 0 26.41c0-2.82 2.87-3.83 6.54-4.3.97-.12 1.49-.45 1.49-1.09 0-.95-.77-1.42-2.19-1.42-1.49 0-3.15.79-4.17 1.72L.5 18.88c1.28-1.01 3.63-1.98 5.66-1.98 3.02 0 5.34 1.35 5.34 4.67Zm-6.58 5.84c1.76 0 3.04-1.51 3.02-3.37-2.86.3-4.42.77-4.42 2.17 0 .75.47 1.2 1.4 1.2Zm37.74-8.06c.76-1.64 1.91-2.45 3.72-2.45.47 0 1.04.06 1.58.29l-.64 3.27c-.42-.3-1.04-.45-1.51-.45-1.21 0-2.91.83-2.91 3.67v5.96h-3.54V17.26h3.3v2.09Zm21.72-2.45c2.27 0 4.13 1.41 4.13 4.19v8.55h-3.53V22.2c0-1.63-.99-2.31-1.93-2.31-1.16 0-2.33 1.06-2.33 3.37v6.38h-3.56v-7.42c0-1.69-.93-2.33-1.94-2.33-1.11 0-2.32 1.09-2.32 3.37v6.38h-3.54V17.26h3.42v1.87c.61-1.18 1.9-2.23 3.77-2.23 1.73 0 3.14.79 3.83 2.18.73-1.06 2.13-2.18 4-2.18Zm-35.55-5.82c2.01 0 3.13.72 3.13.72l-1.1 2.5s-.68-.4-1.58-.4c-.81 0-1.74.47-1.74 2.11v1.25h3.21v2.73h-3.21v9.65H24v-9.65h-5.37v9.65h-3.54v-9.63h-2.05v-2.73h2.05v-.91c0-4.01 2.57-5.29 4.83-5.29 1.42 0 2.48.35 3.13.72l-1.1 2.5c-.5-.29-1.11-.4-1.58-.4-.81 0-1.74.47-1.74 2.11v1.25H24v-.91c0-4.01 2.59-5.28 4.83-5.27Zm4.03 6.18h3.54v12.38h-3.54V17.26Z" style="fill:#060809"/><path d="M75.18 22.53c0 2.48-.27 4.83-.83 7l-.03.11h-3.36c.64-2.1.99-4.47.99-7.11 0-11.75-8.55-19.3-18.47-19.3-8.16 0-15 5.57-17.01 11.93H33C35.41 6.63 43.92 0 53.48 0c12.16 0 21.7 9.43 21.7 22.53Z" style="fill:#0fa0ea"/></svg>