<svg width="76" height="96" fill="none" xmlns="http://www.w3.org/2000/svg"><path fill-rule="evenodd" clip-rule="evenodd" d="M37.998 0c-9 .001-17.683 2.526-22.732 6.316-4.734 3.553-7 9.364-3.794 18.947.147.439.286.837.415 1.208.985 2.827 1.422 4.082.853 10.16-.269 2.87-2.145 5.557-4.373 8.75C4.71 50.62.104 57.22.104 68.21.104 89.68 20.31 95.999 37.998 96m.005-96c1.787 0 3.562.1 5.298.29v15.333a1 1 0 0 0 1.16.987l17.2-2.81c.933-.153 1.852.365 2.151 1.261 1.035 3.094 1.799 6.97.717 10.201-.147.44-.286.838-.415 1.209-.985 2.827-1.422 4.082-.853 10.16.269 2.87 2.145 5.557 4.373 8.75 3.657 5.24 8.263 11.839 8.263 22.829 0 21.471-20.206 27.789-37.894 27.79" fill="#13141A"/></svg>