<svg width="104" height="48" fill="none" xmlns="http://www.w3.org/2000/svg"><g clip-path="url(#a)" fill="#13141A"><path d="M20.446 19.31a198.572 198.572 0 001.731 4.336 63.55 63.55 0 00-12.63 9.813l-.276-.276c-.078-6.621.866-12.926 2.361-19.35-1.85 1.222-2.754 1.892-4.525 3.27a26.74 26.74 0 00-1.259 1.025 9.44 9.44 0 00-.905.828c-.511.552-.944 1.419-1.18 2.522-.276 1.143-.315 2.128-.118 2.995-.394.355-.59.513-.905.828-.945-1.38-1.417-2.089-2.361-3.507 4.446-4.217 9.365-8 14.677-11.035.078.118.118.197.196.315-2.085 6.148-3.187 12.65-3.462 19.114 1.456-1.3 2.203-1.892 3.738-3.074a51.727 51.727 0 002.006-1.616c.709-.591 1.102-1.025 1.22-1.34.276-.71.472-1.458.63-2.246.118-.828.196-1.498.196-2.05.315-.236.512-.315.866-.551zm21.522-3.152c-3.108.59-4.643.985-7.673 2.01-.078-.276-.157-.434-.236-.71.67-.236 1.22-.512 1.614-.71.432-.236.63-.433.55-.55 0-.08-.039-.119-.078-.198-.04-.079-.079-.158-.158-.197-.983-1.103-1.495-1.616-2.557-2.68-2.755.867-4.132 1.38-6.807 2.562-.04.552-.08 1.024-.08 1.419v1.103c0 .315.04.591.08.749a2.1 2.1 0 00.118.433c.118.237.472.316 1.062.237.59-.118 1.22-.276 1.889-.513.118.276.157.395.275.67-2.675 1.104-4.013 1.734-6.57 3.153-.158-.276-.198-.394-.355-.63.197-.119.433-.316.748-.552.275-.237.511-.434.669-.67.236-.315.432-.63.511-.907.079-.275.157-.63.157-1.024.118-2.089.276-4.493.59-7.133.315-2.64.748-5.005 1.181-7.094.512-.197.748-.276 1.26-.473 3.816 3.035 7.318 6.424 10.544 10.128.197.237.394.395.59.513.197.118.473.236.827.315.236.04.511.079.865.079.355 0 .63-.04.866-.04 0 .276.04.434.118.71zm-9.286-3.783c-1.928-1.774-2.912-2.64-4.997-4.296-.472 2.601-.669 3.94-.905 6.542 2.282-1.025 3.463-1.498 5.902-2.246zm30.063-2.641H61.8c-.394 0-.709.04-.984.079-.315.079-.512.197-.67.394-.117.197-.235.394-.235.63-.04.473-.079.67-.118 1.143-.079.828-.118 1.38-.118 1.695 0 .276.04.67 0 .71-.315.393-2.44.551-3.62.709-1.18.197-2.322.276-3.463.315-1.22.04-2.36-.079-3.502-.355-1.14-.276-2.203-.67-3.108-1.182-.944-.552-1.77-1.222-2.44-2.089a6.644 6.644 0 01-1.298-2.995 5.875 5.875 0 01.315-3.192c.393-1.025 1.062-1.97 2.046-2.798a10.7 10.7 0 013.502-1.97A15.644 15.644 0 0152.71.039c1.338-.039 2.48.08 3.463.316.983.236 1.81.512 2.557.827.276-.276.433-.394.709-.67.511.04.787.04 1.298.119-.118 2.049-.197 3.073-.315 5.123-.511-.04-.747-.08-1.259-.118-.157-.592-.393-1.143-.708-1.734a5.53 5.53 0 00-1.18-1.537c-.512-.473-1.142-.828-1.89-1.104-.747-.276-1.691-.394-2.754-.394-1.18 0-2.203.197-3.108.552a6.068 6.068 0 00-2.243 1.497 5.202 5.202 0 00-1.259 2.286 7.885 7.885 0 00-.197 2.916c.118.946.355 1.774.787 2.562a6.499 6.499 0 001.535 2.01c.63.551 1.377.985 2.243 1.3.865.316 1.81.434 2.872.434.787 0 1.495-.08 2.164-.276.67-.158 1.299-.355 1.417-.552.118-.197.157-.71.157-1.064.04-.355.04-.67.04-.946 0-.315.039-.473.039-.827 0-.276-.04-.552-.118-.789-.118-.236-.315-.394-.67-.512-.314-.118-.747-.197-1.298-.276-.55-.079-.983-.079-1.298-.118v-.749c3.66 0 5.508.119 9.168.591-.04.395-.079.513-.118.828zM81.71 16.75c-.866 1.497-1.298 2.285-2.125 3.782a64.07 64.07 0 00-15.148-4.61c.039-.276.078-.434.118-.71.275.04.63.08 1.101.119.472.039.748.039.905.039.315-.04.512-.118.67-.276.157-.158.235-.315.314-.591.905-4.138 1.338-6.227 2.203-10.365.04-.236.04-.433-.039-.63s-.315-.394-.63-.591a6.108 6.108 0 00-1.101-.473c-.472-.158-.866-.276-1.141-.315.04-.276.078-.434.118-.71 6.099 1.222 11.725 2.877 17.47 5.163-.55 1.3-.826 1.97-1.377 3.27-.433-.196-.67-.275-1.102-.472 0-.552-.236-1.261-.669-2.089-.472-.827-1.023-1.38-1.613-1.616-.315-.157-.708-.276-1.141-.473-.433-.157-.944-.354-1.535-.512-1.416-.433-2.124-.63-3.54-1.025-.591 2.247-.906 3.39-1.496 5.675.944.237 1.416.394 2.321.67.748.237 1.299.355 1.692.355.394 0 .748-.04 1.063-.158.275-.118.55-.315.826-.551.275-.276.472-.513.63-.789.432.158.668.237 1.101.395a300.073 300.073 0 00-2.006 5.399 10.44 10.44 0 00-1.023-.355c.078-.315.078-.71.039-1.104-.04-.394-.118-.709-.236-.945a2.09 2.09 0 00-.826-.828c-.355-.197-.827-.394-1.456-.591a39.823 39.823 0 00-2.322-.63c-.433 1.694-.669 2.56-1.102 4.255a4.05 4.05 0 00-.157 1.025c0 .276.118.512.315.67.196.197.472.355.865.512.394.158.945.316 1.653.552.276.079.669.197 1.141.355.472.157.866.276 1.18.394l1.063.236c.354.08.669.08.866 0a7.39 7.39 0 001.81-.867c.708-.433 1.18-.748 1.455-.985.276.118.473.197.866.394zm16.525 16.709c-1.574-1.577-2.361-2.286-4.014-3.705-.04-1.813-.157-3.468-.393-4.887-.197-1.418-.512-2.916-.905-4.492a49.941 49.941 0 00-1.85-1.222c-.983 1.576-1.495 2.365-2.478 3.94-.119.198-.197.395-.197.631 0 .198.118.434.315.71.118.118.354.315.668.591.315.276.59.512.827.67a5.646 5.646 0 01-.433.591c-2.754-1.931-4.17-2.759-7.083-4.296.118-.275.197-.394.355-.67.196.08.511.237.904.395.394.157.67.276.827.315.275.04.511.04.708-.04.197-.078.354-.236.512-.472 2.124-3.705 3.147-5.557 5.272-9.261.118-.198.197-.434.157-.631 0-.236-.157-.473-.472-.749-.196-.197-.511-.433-.865-.67-.354-.276-.709-.473-.945-.63.118-.276.197-.394.355-.67a71.676 71.676 0 019.522 5.832 17.823 17.823 0 012.203 1.892c.63.67 1.141 1.34 1.535 2.05.393.67.59 1.3.59 1.93.039.63-.158 1.143-.59 1.616-.394.433-.827.71-1.299.867-.472.158-1.062.158-1.653.079a7.025 7.025 0 01-1.81-.513c-.668-.236-2.085-.906-2.085-.906-.118.079.512 2.601.63 3.586.118.946.275 2.128.393 3.468.04.591.118 1.104.276 1.458.118.394.275.75.432 1.064.118.237.315.513.551.789.236.315.433.551.63.709a9.962 9.962 0 01-.59.63zm1.18-13.636c.55-.71.669-1.497.315-2.443-.354-.907-1.141-1.853-2.4-2.72a31.43 31.43 0 00-2.4-1.576 398.613 398.613 0 01-3.385 5.32c.67.434 1.024.67 1.692 1.104 1.18.788 2.322 1.26 3.463 1.379 1.18.118 2.085-.236 2.715-1.064zM33.077 33.419v-.237c.157-.079.275-.157.433-.236.04-.434.078-1.38.078-2.838 0-.985 0-1.615-.039-1.93 0-.158-.04-.277-.079-.316-.039-.04-.275-.079-.63-.118v-.355c.67.04 1.22.04 1.614.04l2.36-.04c.237 0 .473 0 .67.04l.04.039c-.08.315-.119.749-.158 1.261h-.354c0-.433-.04-.63-.04-.67 0-.04-.078-.04-.196-.079a6.677 6.677 0 00-1.102-.079c-.236 0-.512 0-.827.04-.039.906-.078 1.576-.078 2.128.315.04.59.04.866.04.393 0 .629 0 .708-.04.04 0 .078-.04.118-.118 0-.04.04-.237.078-.552h.355c0 .473-.04.788-.04.946l.04.985h-.355c-.039-.394-.039-.591-.078-.67 0-.04-.04-.04-.118-.079-.158-.04-.472-.04-.984-.04-.157 0-.354 0-.55.04v.473c0 .828 0 1.458.038 1.892h.866c.472 0 .944-.04 1.338-.079.079-.276.157-.552.197-.906h.354a9.486 9.486 0 00-.118 1.458c-.276.04-.512.04-.748.04h-2.124c-.512-.04-1.024-.04-1.535-.04zm6.06-1.813h.393c0 .434 0 .67.04.749.039.079.118.158.236.276a1.8 1.8 0 00.55.276c.237.078.473.118.709.118.393 0 .708-.118.984-.315a.993.993 0 00.354-.789c0-.276-.079-.512-.236-.67-.158-.157-.473-.275-.945-.354-.669-.08-1.14-.197-1.377-.316-.236-.118-.433-.275-.55-.512a1.834 1.834 0 01-.198-.827c0-.552.197-.986.551-1.38.394-.394.984-.551 1.81-.551.315 0 .63.039.866.078.236.04.512.119.748.237l.039.118c-.04.197-.079.355-.079.473 0 .158-.04.394-.04.749h-.353c0-.434-.04-.71-.079-.75-.04-.078-.197-.196-.433-.314a1.595 1.595 0 00-.747-.158c-.394 0-.709.079-.905.276a1.01 1.01 0 00-.315.749c0 .197.04.354.118.473a.93.93 0 00.354.315c.157.079.512.158 1.023.236.472.08.787.158.984.197.275.119.472.276.63.513.157.236.196.512.196.867 0 .59-.236 1.103-.708 1.537-.472.394-1.102.59-1.889.59-.354 0-.669-.039-.983-.117a5.328 5.328 0 01-.905-.355c.039-.197.078-.394.117-.552 0-.157.04-.473.04-.867zm6.885 1.814v-.355c.158 0 .315 0 .512-.04.079 0 .157-.04.157-.079.04-.039.079-.078.079-.197.04-.118.04-.59.04-1.379v-3.428c0-.04-.119-.04-.315-.04-.394 0-.748 0-1.023.04a.96.96 0 00-.276.039c-.04 0-.04.04-.04.079 0 .04-.039.276-.078.748h-.354c0-.551 0-1.024-.04-1.418l.04-.04c.905.04 1.77.08 2.636.08.866 0 1.81-.04 2.873-.08l.039.08c-.04.393-.079.866-.118 1.378H49.8c-.04-.472-.04-.748-.079-.788 0-.04-.079-.04-.118-.078-.236-.04-.669-.04-1.377-.04-.04 0-.079 0-.118.04v.236l-.04 2.916c0 .828 0 1.34.04 1.537 0 .197.04.315.118.355.04.04.275.04.669.079v.354c-.433 0-.866-.04-1.338-.04-.63.04-1.141.04-1.535.04zm6.176-1.262c.197 0 .354.079.472.197a.728.728 0 01.197.473.653.653 0 01-.197.473.726.726 0 01-.472.197.651.651 0 01-.472-.197.728.728 0 01-.197-.473c0-.158.079-.355.197-.473.118-.158.276-.197.472-.197zm5.157 1.261l-.04-.04v-.275l.04-.04c.551-.04.866-.079.944-.118l.118-.118c.04-.079.08-.355.08-.867.038-.828.038-1.577.038-2.207 0-.828 0-1.3-.039-1.419 0-.04-.04-.079-.079-.079s-.078 0-.118.04l-1.18.552-.04-.04c-.039-.197-.039-.394-.078-.512l.04-.08a34.543 34.543 0 002.675-.905l.118.078c-.04.395-.079.946-.079 1.655 0 .71-.039 1.537-.039 2.523 0 .67 0 1.103.04 1.26 0 .08.039.119.117.158.079.04.355.08.866.119l.04.04v.275l-.04.04h-1.653c-.55-.04-1.101-.04-1.73-.04zm7.513-2.995c-.315.355-.551.552-.67.591-.157.079-.393.118-.668.118-.394 0-.748-.157-1.023-.433-.276-.316-.394-.71-.394-1.261 0-.63.197-1.143.551-1.537.354-.394.826-.591 1.417-.591.393 0 .747.078 1.023.275.314.198.511.473.669.789.157.354.236.827.236 1.418 0 .828-.118 1.498-.394 2.01-.275.512-.63.946-1.14 1.261a3.598 3.598 0 01-1.732.552l-.354-.276.118-.158c.157 0 .315.04.354.04.315 0 .63-.118.944-.315.315-.197.551-.473.708-.867.197-.355.315-.907.355-1.616zm-.748-.079a.8.8 0 00.59-.236c.158-.158.197-.434.197-.789 0-.551-.079-.985-.236-1.221a.756.756 0 00-.63-.355.708.708 0 00-.59.276c-.157.197-.197.512-.197.906 0 .513.08.867.276 1.104.078.236.315.315.59.315zm4.29 0c.315-.354.55-.551.669-.59.157-.08.393-.119.63-.119.393 0 .747.158 1.022.434.276.315.394.709.394 1.26 0 .67-.197 1.183-.59 1.616-.354.395-.827.592-1.377.592-.394 0-.709-.08-1.023-.276-.315-.197-.512-.473-.67-.828-.157-.355-.236-.827-.236-1.419 0-.788.118-1.418.394-1.93a3.297 3.297 0 011.18-1.262 3.094 3.094 0 011.653-.473l.354.316-.118.157c-.157-.04-.315-.04-.393-.04-.276 0-.59.12-.866.316-.315.197-.55.473-.708.828-.158.276-.276.788-.315 1.418zm.748.08c-.276 0-.473.078-.59.236-.158.157-.197.433-.197.748 0 .592.078 1.025.236 1.261a.755.755 0 00.63.355c.235 0 .432-.079.55-.315.157-.197.236-.512.236-.946 0-.512-.078-.867-.275-1.103-.118-.158-.315-.237-.59-.237zm5.862-.001c-.314.355-.55.552-.668.591-.157.079-.394.118-.669.118-.393 0-.748-.157-1.023-.433-.275-.316-.393-.71-.393-1.261 0-.63.196-1.143.55-1.537.355-.394.827-.591 1.417-.591.393 0 .748.078 1.023.275.315.198.511.473.669.789.157.354.236.827.236 1.418 0 .828-.118 1.498-.394 2.01-.275.512-.629.946-1.14 1.261a3.598 3.598 0 01-1.732.552l-.354-.276.118-.158c.157 0 .315.04.354.04.315 0 .63-.118.945-.315.314-.197.55-.473.708-.867.197-.355.275-.907.354-1.616zm-.747-.079a.8.8 0 00.59-.236c.158-.158.197-.434.197-.789 0-.551-.078-.985-.236-1.221a.773.773 0 00-.669-.355.708.708 0 00-.59.276c-.157.197-.197.512-.197.906 0 .513.079.867.276 1.104.118.236.314.315.63.315zM11.986 44.532l-.118 1.694H7.146v-.276c.08 0 .197 0 .315-.039.118 0 .236-.04.276-.04.078-.039.157-.078.196-.157.04-.079.04-.158.04-.236V41.34c0-.08 0-.158-.04-.237-.039-.079-.078-.118-.196-.157a.565.565 0 00-.276-.08c-.118 0-.236-.039-.275-.039v-.276h4.446v1.38h-.315c-.039-.197-.157-.434-.354-.67-.197-.237-.354-.355-.511-.394-.079 0-.197 0-.315-.04-.118-.039-.236 0-.394 0h-.905v2.286h.63c.197 0 .354 0 .472-.04.079-.039.197-.117.236-.196.079-.08.118-.197.158-.316.039-.118.078-.236.078-.354h.315v2.246h-.315a1.4 1.4 0 00-.078-.394c-.04-.158-.08-.236-.158-.315-.079-.119-.197-.158-.275-.197-.118-.04-.236-.04-.433-.04h-.63v1.734c0 .158 0 .315.04.394.04.119.078.158.157.237.079.04.158.078.276.118.118 0 .275.04.511.04h.708c.118 0 .197-.04.315-.04a.64.64 0 00.236-.118c.118-.118.236-.316.394-.591.118-.276.236-.473.275-.591h.236v-.158zm4.249 1.616c-.118.04-.236.079-.315.118-.079.04-.197.04-.315.04-.197 0-.393-.04-.511-.158-.118-.079-.197-.237-.236-.434h-.04a1.416 1.416 0 01-.55.434c-.197.118-.433.157-.709.157-.315 0-.55-.078-.747-.275-.197-.197-.276-.434-.276-.71 0-.157.04-.276.079-.394a.86.86 0 01.197-.315.706.706 0 01.275-.197c.118-.079.197-.118.315-.158.118-.04.354-.118.747-.236.355-.119.63-.237.748-.276v-.394c0-.04 0-.119-.04-.197a.57.57 0 00-.078-.276c-.04-.118-.118-.197-.236-.276-.079-.079-.236-.118-.433-.118-.118 0-.236.04-.354.079a.641.641 0 00-.236.118c0 .04 0 .118.04.236a.798.798 0 01.038.276.425.425 0 01-.118.276c-.078.079-.196.118-.354.118a.358.358 0 01-.314-.157c-.08-.08-.08-.198-.08-.316s.04-.236.119-.354c.079-.119.197-.197.354-.316.118-.078.275-.157.433-.197a2.3 2.3 0 01.511-.079c.237 0 .433 0 .59.04.158.04.315.079.473.197.118.118.236.236.315.394.078.158.118.394.118.67v2.01c0 .118 0 .197.039.236.04.08.079.119.157.158.04.04.118.04.197.04h.276v.236h-.08zm-1.377-2.128c-.237.078-.433.118-.59.197l-.473.236a1.198 1.198 0 00-.315.316.795.795 0 00-.118.433c0 .236.04.394.158.512a.591.591 0 00.433.158.79.79 0 00.511-.158c.157-.118.276-.197.354-.315l.04-1.38zm4.407.236a.574.574 0 01.236.355c.04.158.08.276.08.473 0 .355-.158.67-.434.906-.275.237-.63.355-1.062.355-.236 0-.433-.04-.63-.118a2.13 2.13 0 01-.432-.237l-.079.276h-.315l-.04-1.38h.276l.118.355c.04.119.158.276.236.395.118.118.236.236.394.315.157.079.315.118.511.118.276 0 .473-.04.59-.158.158-.118.197-.275.197-.512a.57.57 0 00-.078-.276.475.475 0 00-.197-.197c-.079-.079-.197-.118-.315-.157-.118-.04-.275-.119-.433-.158-.118-.04-.275-.079-.433-.158a3.482 3.482 0 01-.393-.236c-.118-.079-.197-.197-.275-.355-.08-.118-.118-.315-.118-.473 0-.315.118-.59.354-.827s.55-.355.983-.355c.158 0 .315.04.473.079.157.04.314.079.393.157l.079-.197h.275l.079 1.3h-.276c-.039-.275-.196-.511-.354-.708a.92.92 0 00-.669-.276c-.236 0-.393.04-.511.157-.118.119-.197.237-.197.394 0 .119.04.237.079.316.04.078.118.157.197.197.078.04.196.118.314.157.118.04.276.119.472.158.197.04.355.118.512.197.157-.04.315.04.393.118zm.668 3.271c0-.118.04-.236.119-.315a.357.357 0 01.275-.118c.079 0 .157 0 .236.039.079.04.118.079.157.118.04.04.08.08.119.158.039.079.078.118.117.157a1.75 1.75 0 00.473-.551c.196-.316.315-.591.393-.788-.236-.63-.472-1.222-.708-1.695-.197-.512-.433-1.025-.669-1.576-.04-.119-.118-.237-.275-.276a.634.634 0 00-.355-.118v-.276h1.81v.276c-.078 0-.196 0-.275.039-.118.04-.157.079-.157.118v.08c0 .038.039.078.039.117.118.276.275.67.472 1.143.197.513.354.907.472 1.222.118-.276.236-.591.394-.907.118-.315.275-.67.433-1.103 0-.04.039-.118.078-.197.04-.079.04-.158.04-.236 0-.08-.08-.119-.197-.198-.118-.078-.236-.078-.354-.118v-.276h1.495v.237c-.079 0-.197.079-.315.157a.629.629 0 00-.275.355c-.315.749-.59 1.419-.866 2.05-.236.63-.433 1.063-.55 1.34-.158.393-.316.67-.473.866a2.896 2.896 0 01-.393.513.93.93 0 01-.355.236c-.118.04-.196.04-.314.04-.197 0-.394-.04-.512-.158a1.15 1.15 0 01-.079-.355zm10.82-5.636c0 .316-.039.552-.157.789a1.743 1.743 0 01-.472.59 1.497 1.497 0 01-.67.316c-.235.04-.51.118-.786.118h-.63v1.734a.5.5 0 00.04.237c.039.078.078.118.196.157.04 0 .118.04.276.04.118 0 .236.04.354.04v.275h-2.44v-.276c.08 0 .158 0 .276-.04.118 0 .197-.039.275-.039.079-.04.158-.079.158-.157.039-.08.039-.158.039-.276V41.26c0-.079 0-.197-.04-.237-.039-.039-.078-.118-.196-.157-.118-.04-.197-.08-.315-.08s-.197-.038-.275-.038v-.276h2.597c.55 0 .983.118 1.298.394.315.276.472.59.472 1.024zm-1.22.986c.08-.119.158-.276.197-.395.04-.157.04-.275.04-.354 0-.158 0-.315-.04-.473a1.46 1.46 0 00-.197-.434.794.794 0 00-.354-.275 1.311 1.311 0 00-.59-.119h-.55v2.523h.393a1.9 1.9 0 00.708-.119c.157-.118.315-.197.393-.354zm3.662 3.35h-1.928v-.276h.196c.08 0 .118 0 .158-.04a.532.532 0 00.157-.118c.04-.04.04-.157.04-.236v-4.611a.731.731 0 00-.08-.276c-.038-.079-.078-.158-.157-.197-.039-.04-.118-.079-.275-.079-.157 0-.236-.04-.315-.04v-.275L32.486 40l.04.079v5.478a.5.5 0 00.04.236.305.305 0 00.156.158c.08.04.118.04.158.079.04 0 .118.039.197.039v.158h.118zm4.248-.079c-.118.04-.236.079-.315.118-.079.04-.197.04-.315.04-.197 0-.393-.04-.511-.158-.118-.079-.197-.237-.236-.434h-.04a1.416 1.416 0 01-.55.434c-.197.118-.433.157-.709.157-.315 0-.55-.078-.747-.275-.197-.197-.276-.434-.276-.71 0-.157.04-.276.079-.394a.86.86 0 01.197-.315.694.694 0 01.275-.197c.118-.079.197-.118.315-.158.118-.04.354-.118.747-.236.355-.119.63-.237.748-.276v-.394c0-.04 0-.119-.04-.197a.57.57 0 00-.078-.276c-.04-.118-.118-.197-.236-.276-.079-.079-.236-.118-.433-.118-.118 0-.236.04-.354.079a.641.641 0 00-.236.118c0 .04 0 .118.04.236a.798.798 0 01.038.276.428.428 0 01-.117.276c-.08.079-.197.118-.355.118a.358.358 0 01-.314-.157c-.08-.08-.08-.198-.08-.316s.04-.236.119-.354c.079-.119.197-.197.354-.316.118-.078.276-.157.433-.197a2.3 2.3 0 01.511-.079c.236 0 .433 0 .59.04.158.04.315.079.473.197.118.118.236.236.314.394.08.158.119.394.119.67v2.01c0 .118 0 .197.039.236.04.08.079.119.157.158.04.04.118.04.197.04h.276v.236h-.08zm-1.417-2.128c-.236.078-.433.118-.59.197l-.472.236a1.198 1.198 0 00-.315.316.795.795 0 00-.118.433c0 .236.04.394.157.512a.591.591 0 00.433.158.79.79 0 00.512-.158c.157-.118.275-.197.354-.315l.04-1.38zm1.537 3.507c0-.118.04-.236.118-.315a.357.357 0 01.276-.118c.078 0 .157 0 .236.039.079.04.118.079.157.118.04.04.079.08.118.158.04.079.079.118.118.157a1.75 1.75 0 00.473-.551 4.82 4.82 0 00.393-.788c-.236-.63-.472-1.222-.708-1.695-.197-.512-.433-1.025-.67-1.576-.038-.119-.117-.237-.275-.276a.634.634 0 00-.354-.118v-.276h1.81v.276c-.078 0-.196 0-.275.039-.118.04-.157.079-.157.118v.08c0 .038.039.078.039.117.118.276.275.67.472 1.143.197.513.354.907.472 1.222.118-.276.236-.591.394-.907.118-.315.275-.67.432-1.103 0-.04.04-.118.08-.197.038-.079.038-.158.038-.236 0-.08-.078-.119-.196-.198-.118-.078-.236-.078-.354-.118v-.276h1.495v.237c-.079 0-.197.079-.315.157a.63.63 0 00-.275.355c-.315.749-.59 1.419-.866 2.05-.236.63-.433 1.063-.55 1.34-.158.393-.316.67-.473.866a2.892 2.892 0 01-.394.513.93.93 0 01-.354.236c-.118.04-.196.04-.314.04-.197 0-.394-.04-.512-.158a1.153 1.153 0 01-.079-.355zm8.97-1.182c-.354 0-.669-.079-.983-.197a2.009 2.009 0 01-.826-.591c-.237-.237-.433-.552-.59-.946-.158-.355-.197-.788-.197-1.222 0-.473.078-.867.196-1.26.118-.395.315-.71.59-.947.237-.275.551-.473.866-.63a2.46 2.46 0 011.063-.237c.275 0 .55.04.747.119.197.079.433.157.669.276l.157-.276h.315l.04 2.049h-.315a3.872 3.872 0 00-.197-.63 2.09 2.09 0 00-.315-.592c-.118-.197-.275-.315-.472-.433a1.109 1.109 0 00-.59-.158c-.276 0-.512.04-.708.158a1.472 1.472 0 00-.59.512 2.627 2.627 0 00-.355.828 5.1 5.1 0 00-.118 1.142c0 .355.04.71.158 1.025.078.315.236.591.393.788.158.237.394.394.63.552.236.118.511.197.787.197.236 0 .432-.04.59-.118.197-.079.354-.158.472-.276.118-.118.236-.236.354-.394a1.22 1.22 0 00.236-.512l.315.157c-.236.552-.55.985-.905 1.222a2.566 2.566 0 01-1.417.394zm6.925-.197l-1.298.079-.08-.04v-.512h-.038c-.08.079-.119.158-.237.197a.704.704 0 01-.275.197 1.397 1.397 0 01-.354.158c-.118.039-.276.039-.472.039-.355 0-.63-.118-.787-.355-.197-.236-.276-.551-.276-.985v-1.892c0-.078 0-.197-.04-.236a.307.307 0 00-.157-.158c-.039-.039-.117-.039-.196-.078-.079 0-.158-.04-.236-.04v-.276l1.337-.079.08.04v2.758c0 .276.078.513.196.67a.56.56 0 00.472.237c.157 0 .276-.04.394-.079.118-.04.196-.118.275-.157.079-.04.118-.119.197-.198a.545.545 0 01.118-.157v-2.246c0-.08 0-.158-.04-.237a.308.308 0 00-.157-.158c-.04-.039-.118-.039-.197-.039h-.314v-.276l1.455-.079.08.04v3.152a.5.5 0 00.038.237c.04.079.08.118.158.158.04.039.118.039.157.039h.236v.276h-.039zm3.148-1.892a.574.574 0 01.236.355c.04.158.08.276.08.473 0 .355-.158.67-.434.906-.275.237-.63.355-1.062.355-.236 0-.433-.04-.63-.118a2.132 2.132 0 01-.432-.237l-.08.276h-.314l-.04-1.38h.276l.118.355c.04.119.157.276.236.395.118.118.236.236.394.315.157.079.315.118.511.118.276 0 .472-.04.59-.158.158-.118.197-.275.197-.512 0-.118-.04-.197-.079-.276a.476.476 0 00-.196-.197c-.079-.079-.197-.118-.315-.157-.118-.04-.276-.119-.433-.158-.118-.04-.275-.079-.433-.158a3.482 3.482 0 01-.393-.236c-.118-.079-.197-.197-.276-.355-.078-.118-.118-.315-.118-.473 0-.315.118-.59.355-.827.236-.237.55-.355.983-.355.158 0 .315.04.472.079.158.04.315.079.394.157l.078-.197h.276l.079 1.3h-.276c-.04-.275-.197-.511-.354-.708a.92.92 0 00-.669-.276c-.236 0-.393.04-.511.157-.118.119-.197.237-.197.394 0 .119.04.237.079.316a.483.483 0 00.196.197c.079.04.197.118.315.157.118.04.276.119.472.158.197.04.354.118.512.197.157-.04.275.04.393.118zm3.384 1.814c-.157.078-.354.117-.511.196-.158.04-.354.08-.59.08-.315 0-.551-.08-.709-.237-.118-.158-.196-.394-.196-.71v-2.68h-.709v-.394h.748v-1.221h.748v1.221h1.14v.394h-1.14v2.641c0 .118.039.197.078.276.04.079.118.118.197.197.079.04.197.079.354.079h.315c.118 0 .236-.04.275-.04v.197zm4.288-1.893c0 .276-.04.552-.118.828-.079.276-.197.512-.394.67-.196.197-.393.394-.63.473-.235.118-.51.157-.826.157-.236 0-.511-.039-.708-.157a1.286 1.286 0 01-.59-.434c-.157-.197-.315-.394-.433-.67a2.123 2.123 0 01-.157-.867c0-.63.197-1.142.55-1.537.355-.394.827-.59 1.417-.59.551 0 1.023.196 1.377.551.315.473.512.985.512 1.576zm-.826.04c0-.197-.04-.434-.08-.63a2.078 2.078 0 00-.196-.592c-.079-.157-.197-.315-.354-.394a.79.79 0 00-.512-.158.902.902 0 00-.55.158.964.964 0 00-.354.434 2.284 2.284 0 00-.197.551c-.04.197-.04.394-.04.591 0 .276.04.513.08.71.038.236.117.433.196.59.079.159.197.316.354.395.157.079.315.158.511.158.355 0 .59-.158.787-.473.237-.316.355-.788.355-1.34zm8.186 2.01H69.71v-.276h.197c.078 0 .118 0 .157-.04a.54.54 0 00.158-.118c.039-.079.039-.157.039-.236v-2.05c0-.275-.079-.512-.197-.63a.56.56 0 00-.472-.236c-.118 0-.236.039-.354.078-.118.04-.236.08-.315.158-.079.079-.157.118-.197.197-.039.079-.078.118-.118.158v2.285a.5.5 0 00.04.237.301.301 0 00.157.157c.079.04.118.04.157.04.04 0 .118.04.197.04v.275H67.27v-.276h.197c.04 0 .118 0 .158-.04a.545.545 0 00.157-.117c.04-.08.04-.158.04-.237v-2.05c0-.275-.08-.511-.197-.63a.56.56 0 00-.473-.236.937.937 0 00-.354.079c-.118.04-.236.118-.314.157-.08.08-.158.119-.197.197a.543.543 0 01-.118.158v2.286a.5.5 0 00.04.236c.038.08.078.118.156.158.04.04.119.04.158.079.04.04.118.04.197.04v.275h-1.928v-.276h.196c.079 0 .118 0 .158-.04a.543.543 0 00.157-.118.501.501 0 00.04-.236v-2.483c0-.079 0-.157-.04-.236a.307.307 0 00-.157-.158c-.04-.04-.118-.04-.197-.079-.079-.04-.157-.04-.236-.04v-.275l1.338-.079.039.04v.551h.04l.236-.236c.078-.079.196-.158.275-.236.079-.08.197-.119.354-.158.157-.04.275-.079.472-.079.276 0 .472.079.67.197.196.158.314.315.393.512l.236-.236c.078-.079.157-.158.275-.236.118-.08.236-.119.354-.158.118-.04.276-.079.472-.079.355 0 .59.118.787.315.197.237.276.552.276 1.025v2.01a.5.5 0 00.04.236c.038.08.078.118.156.158.08.04.118.04.197.04.079 0 .118.039.197.039v.197h.118zm8.104-2.286c-.079 0-.157.04-.275.04a.568.568 0 00-.276.078c-.078.04-.157.08-.157.158-.04.079-.04.157-.04.276v1.379a5.614 5.614 0 01-1.062.355 4.877 4.877 0 01-1.062.118c-.354 0-.708-.079-1.063-.197-.354-.118-.63-.315-.904-.591-.237-.276-.473-.552-.59-.946a3.074 3.074 0 01-.237-1.222c0-.433.079-.827.197-1.221.157-.355.354-.71.63-.986.235-.275.55-.473.904-.63a2.817 2.817 0 011.141-.237c.315 0 .59.04.827.119.236.079.433.157.63.276l.157-.276h.315l.039 2.01h-.236c-.04-.237-.118-.434-.197-.67a4.358 4.358 0 00-.315-.592c-.118-.157-.275-.315-.472-.394-.197-.118-.433-.157-.669-.157-.275 0-.55.04-.787.157a1.472 1.472 0 00-.59.513c-.157.236-.275.512-.393.827-.08.316-.119.71-.119 1.104 0 .354.04.709.119 1.024.078.316.196.591.393.828.157.236.393.433.63.552a2 2 0 00.865.197c.236 0 .472-.04.63-.119a2.13 2.13 0 00.433-.236c.039-.158.039-.276.039-.434v-.67c0-.118 0-.197-.04-.315-.039-.078-.078-.157-.196-.197a.785.785 0 00-.354-.079c-.158-.039-.276-.039-.354-.039v-.276h2.518v.473h-.079zm4.642 2.207l-1.299.079-.078-.04v-.512h-.04c-.078.079-.118.158-.236.197a.704.704 0 01-.275.197 1.395 1.395 0 01-.354.158c-.118.039-.276.039-.473.039-.354 0-.63-.118-.787-.355-.157-.236-.275-.551-.275-.985v-1.892c0-.078 0-.197-.04-.236a.307.307 0 00-.157-.158c-.039-.039-.118-.039-.196-.078-.08 0-.158-.04-.237-.04v-.276l1.338-.079.079.04v2.758c0 .276.079.513.197.67a.56.56 0 00.472.237c.157 0 .275-.04.393-.079.118-.04.197-.118.276-.157.079-.04.118-.119.197-.198a.528.528 0 01.118-.157v-2.246c0-.08 0-.158-.04-.237a.308.308 0 00-.157-.158c-.04-.039-.118-.039-.197-.039h-.315v-.276l1.456-.079.079.04v3.152a.5.5 0 00.04.237.307.307 0 00.157.158c.039.039.118.039.157.039h.236v.276h-.04zm2.402.079h-1.928v-.276h.196c.079 0 .118 0 .158-.04a.543.543 0 00.157-.118c.04-.078.04-.157.04-.236v-2.444c0-.078 0-.157-.04-.236-.04-.079-.079-.118-.157-.197-.04-.04-.118-.079-.236-.079-.08-.04-.197-.04-.276-.04v-.275l1.417-.079.039.04v3.231a.5.5 0 00.04.236c.039.08.078.119.157.119.04.04.118.04.157.04.04 0 .118.038.197.038v.316h.079zm-.512-5.596a.51.51 0 01-.157.394.48.48 0 01-.354.157c-.119 0-.276-.039-.355-.157a.482.482 0 01-.157-.355.51.51 0 01.157-.394.48.48 0 01.355-.158c.157 0 .275.04.393.158.079.079.118.197.118.355zm3.463 5.439c-.157.078-.354.117-.511.196-.157.04-.354.08-.59.08-.315 0-.551-.08-.709-.237-.118-.158-.196-.394-.196-.71v-2.68h-.709v-.394h.748v-1.221h.748v1.221h1.14v.394h-1.14v2.641c0 .118.039.197.078.276.04.079.118.118.197.197.079.04.197.079.354.079h.315c.118 0 .236-.04.275-.04v.197zm4.171.078c-.118.04-.237.079-.315.118-.079.04-.197.04-.315.04-.197 0-.393-.04-.511-.158-.118-.079-.197-.237-.236-.434h-.04a1.417 1.417 0 01-.55.434c-.198.118-.434.157-.709.157-.315 0-.55-.078-.748-.275-.196-.197-.275-.434-.275-.71 0-.157.04-.276.079-.394a.858.858 0 01.196-.315c.08-.079.158-.158.276-.197.118-.079.197-.118.315-.158.118-.04.354-.118.747-.236.354-.119.63-.237.748-.276v-.394c0-.04 0-.119-.04-.197a.576.576 0 00-.078-.276c-.04-.118-.118-.197-.236-.276-.079-.079-.236-.118-.433-.118-.118 0-.236.04-.354.079a.64.64 0 00-.236.118c0 .04 0 .118.039.236.04.119.04.197.04.276 0 .079-.04.197-.119.276-.078.079-.196.118-.354.118a.358.358 0 01-.315-.157c-.078-.08-.078-.198-.078-.316s.04-.236.118-.354c.079-.119.197-.197.354-.316.118-.078.275-.157.433-.197a2.3 2.3 0 01.511-.079c.236 0 .433 0 .59.04.158.04.315.079.473.197.118.118.236.236.314.394.08.158.118.394.118.67v2.01c0 .118 0 .197.04.236.04.08.079.119.157.158.04.04.118.04.197.04h.275v.236h-.078zM92.49 44.02c-.236.078-.433.118-.59.197l-.472.236a1.198 1.198 0 00-.315.316.795.795 0 00-.118.433c0 .236.04.394.157.512a.591.591 0 00.433.158.79.79 0 00.512-.158c.157-.118.275-.197.354-.315l.04-1.38zm4.84-1.262c0 .119-.039.276-.118.355-.078.118-.157.158-.314.158-.158 0-.276-.04-.355-.118a.358.358 0 01-.118-.276v-.158c0-.04 0-.079.04-.158a.731.731 0 00-.433.158c-.157.118-.315.236-.433.434v2.325a.5.5 0 00.04.236c.039.079.078.118.157.118.079.04.157.04.275.08.118 0 .197.039.276.039v.276H94.26v-.276h.197c.079 0 .118 0 .157-.04a.543.543 0 00.158-.118c.04-.079.04-.158.04-.236v-2.444c0-.079 0-.157-.04-.236-.04-.08-.079-.158-.158-.197-.039-.04-.118-.04-.196-.08-.079 0-.158-.039-.236-.039v-.275l1.337-.08.04.04v.552h.04a1.68 1.68 0 01.55-.512c.197-.119.393-.158.55-.158.158 0 .316.04.434.158.157.118.196.275.196.472zm2.992 1.498a.572.572 0 01.236.355c.04.158.079.276.079.473 0 .355-.157.67-.433.906-.275.237-.63.355-1.062.355-.236 0-.433-.04-.63-.118a2.174 2.174 0 01-.433-.237l-.078.276h-.315l-.04-1.38h.276l.118.355c.04.119.157.276.236.395.118.118.236.236.394.315.157.079.314.118.511.118.276 0 .472-.04.59-.158.158-.118.197-.275.197-.512a.57.57 0 00-.079-.276.475.475 0 00-.196-.197c-.08-.079-.197-.118-.315-.157-.118-.04-.276-.119-.433-.158-.118-.04-.275-.079-.433-.158a3.482 3.482 0 01-.393-.236c-.118-.079-.197-.197-.276-.355-.079-.118-.118-.315-.118-.473 0-.315.118-.59.354-.827s.551-.355.984-.355c.157 0 .315.04.472.079.158.04.315.079.394.157l.078-.197h.276l.078 1.3h-.275c-.039-.275-.197-.511-.354-.708a.92.92 0 00-.669-.276c-.236 0-.394.04-.511.157-.119.119-.197.237-.197.394 0 .119.04.237.078.316.04.078.118.157.197.197.079.04.197.118.315.157.118.04.275.119.472.158.197.04.354.118.512.197.157-.04.275.04.393.118z"/></g><defs><clipPath id="a"><path fill="#fff" transform="translate(.379)" d="M0 0h102.933v48H0z"/></clipPath></defs></svg>