<svg version="1.2" baseProfile="tiny-ps" xmlns="http://www.w3.org/2000/svg" width="124" height="31"><style>.shp0{fill:#253b80}.shp1{fill:#179bd7}</style><g id="Check out - inputs + search results"><g id="Group 253"><g id="Group 252"><path id="Path 512" fill-rule="evenodd" class="shp0" d="M51.2 8.49c.88 1.04 1.17 2.53.87 4.42-.68 4.32-3.28 6.5-7.79 6.5h-2.16c-.47 0-.87.34-.94.8l-.75 4.73c-.07.47-.47.81-.93.81h-3.27c-.35 0-.62-.32-.56-.66l2.76-17.54c.08-.46.47-.8.94-.8h6.84c2.29 0 4.01.6 4.99 1.74Zm-4.53 2.76c-.6-.71-1.77-.71-3-.71h-.48a.57.57 0 0 0-.56.48l-.72 4.59h1.03c1.81 0 3.69 0 4.06-2.46.14-.86.03-1.48-.33-1.9Z"/><path id="Path 513" fill-rule="evenodd" class="shp0" d="m67.21 13.73-1.77 11.21c-.07.46-.47.8-.93.8h-2.95c-.35 0-.62-.31-.57-.66l.15-.91s-1.62 1.88-4.53 1.88c-1.7 0-3.13-.49-4.13-1.67-1.09-1.28-1.53-3.11-1.22-5.03.6-3.84 3.69-6.58 7.31-6.58 1.58 0 3.16.34 3.87 1.37l.23.33.15-.91a.57.57 0 0 1 .56-.49h3.27c.35 0 .62.32.56.66Zm-5.68 3.4c-.49-.58-1.25-.89-2.18-.89-1.86 0-3.37 1.3-3.67 3.15-.15.91.03 1.73.51 2.3.49.58 1.25.89 2.2.89 1.9 0 3.38-1.26 3.7-3.13.14-.91-.06-1.73-.56-2.32Z"/><path id="Path 514" class="shp0" d="m84.56 13.97-10.94 15.8c-.18.26-.47.41-.78.41h-3.29c-.46 0-.73-.52-.47-.9l3.41-4.81-3.62-10.64c-.13-.37.15-.76.54-.76h3.23c.42 0 .79.28.91.68l1.93 6.43 4.54-6.69c.18-.26.47-.42.78-.42h3.3c.46 0 .73.52.46.9Z"/><path id="Path 515" fill-rule="evenodd" class="shp1" d="M99.97 8.49c.89 1.04 1.18 2.53.88 4.42-.68 4.32-3.28 6.5-7.79 6.5H90.9c-.47 0-.87.34-.94.8l-.78 4.97c-.06.33-.33.57-.66.57h-3.51c-.35 0-.62-.32-.56-.66l2.76-17.54c.08-.46.47-.8.94-.8h6.84c2.29 0 4.01.6 4.98 1.74Zm-4.52 2.76c-.6-.71-1.77-.71-3-.71h-.48c-.28 0-.51.21-.56.48l-.72 4.59h1.03c1.81 0 3.69 0 4.06-2.46.14-.86.03-1.48-.33-1.9Z"/><path id="Path 516" fill-rule="evenodd" class="shp1" d="m116 13.73-1.77 11.21c-.08.46-.47.8-.94.8h-2.95c-.35 0-.62-.31-.56-.66l.14-.91s-1.61 1.88-4.53 1.88c-1.7 0-3.13-.49-4.13-1.67-1.08-1.28-1.53-3.11-1.21-5.03.6-3.84 3.69-6.58 7.31-6.58 1.57 0 3.15.34 3.86 1.37l.23.33.15-.91a.57.57 0 0 1 .56-.49h3.27c.35 0 .62.32.57.66Zm-5.69 3.4c-.49-.58-1.25-.89-2.18-.89-1.86 0-3.37 1.3-3.67 3.15-.15.91.03 1.73.51 2.3.49.58 1.25.89 2.2.89 1.9 0 3.38-1.26 3.7-3.13.14-.91-.05-1.73-.56-2.32Z"/><path id="Path 517" class="shp1" d="M119.86 6.75h3.16c.35 0 .61.31.56.66l-2.77 17.53c-.07.47-.47.81-.94.81h-2.82c-.35 0-.62-.32-.56-.66l2.8-17.86c.05-.28.29-.48.57-.48Z"/><path id="Path 518" class="shp0" d="m7.27 29.15.52-3.32-1.17-.03H1.06L4.93 1.29c.01-.07.05-.14.1-.19.06-.05.13-.08.21-.08h9.38c3.11 0 5.26.65 6.39 1.93.52.6.86 1.23 1.02 1.92.17.72.17 1.59.01 2.64l-.02.08v.67l.53.3c.44.24.79.51 1.06.81.45.52.75 1.17.87 1.94.13.8.08 1.74-.12 2.81-.24 1.24-.63 2.31-1.16 3.19-.48.81-1.09 1.48-1.82 2-.7.49-1.52.87-2.46 1.11-.91.23-1.94.35-3.07.35h-.73c-.52 0-1.03.19-1.43.53-.4.34-.66.81-.74 1.32l-.06.3-.92 5.86-.04.21c-.01.07-.03.11-.06.13-.03.02-.06.03-.1.03h-4.5Z"/><path id="Path 519" class="shp1" d="M24.38 8.7c1.2 1.36 1.43 3.3.98 5.62-1.08 5.55-4.78 7.47-9.51 7.47h-.73c-.58 0-1.07.42-1.16 1l-.06.32-.92 5.83-.05.25c-.09.57-.58.99-1.16.99H6.89c-.43 0-.76-.39-.69-.82l.4-2.53L8 17.89c.11-.65.66-1.13 1.33-1.13h2.75c5.4 0 9.63-2.19 10.87-8.54.04-.19.07-.37.1-.55.52.27.97.62 1.33 1.03Z"/><path id="Path 520" d="M22.03 7.24c.37.12.7.26 1.02.43-.03.18-.06.36-.1.55-1.24 6.35-5.47 8.54-10.87 8.54H9.33c-.67 0-1.22.48-1.33 1.13l.05-.29 1.56-9.9c.06-.39.32-.72.66-.88.15-.07.32-.11.5-.11h7.35c.88 0 1.69.05 2.43.17.21.04.42.08.62.12.2.05.39.1.58.15.1.03.19.06.28.09Z" style="fill:#222d65"/><path id="Path 521" class="shp0" d="M8.05 17.6 6.6 26.83H.8c-.49 0-.87-.44-.79-.93L3.92 1.13C4.02.48 4.58 0 5.24 0h9.38c3.23 0 5.76.68 7.16 2.27 1.27 1.45 1.64 3.05 1.27 5.4-.31-.17-.65-.31-1.02-.43-.09-.03-.18-.06-.28-.09-.19-.05-.38-.1-.58-.15-.2-.04-.41-.08-.62-.12-.74-.12-1.55-.17-2.43-.17h-7.35c-.18 0-.35.04-.5.11-.34.16-.6.49-.66.88l-1.56 9.9Z"/></g></g></g></svg>