<svg width="160" height="44" fill="none" xmlns="http://www.w3.org/2000/svg"><g clip-path="url(#a)"><path d="M59.626 9.418h-8.824c-.604 0-1.118.439-1.212 1.035L46.021 33.08a.735.735 0 0 0 .728.85h4.213c.603 0 1.117-.44 1.211-1.037l.963-6.103a1.225 1.225 0 0 1 1.21-1.036h2.794c5.813 0 9.167-2.813 10.044-8.387.394-2.44.016-4.355-1.126-5.697-1.254-1.474-3.478-2.253-6.432-2.253Zm1.018 8.265c-.482 3.166-2.902 3.166-5.241 3.166H54.07l.934-5.914a.735.735 0 0 1 .727-.62h.61c1.594 0 3.097 0 3.874.908.463.542.605 1.347.428 2.46ZM86.007 17.58H81.78a.736.736 0 0 0-.727.621l-.187 1.182-.295-.428c-.915-1.328-2.955-1.772-4.991-1.772-4.67 0-8.658 3.537-9.435 8.498-.404 2.475.17 4.841 1.574 6.492 1.288 1.517 3.13 2.15 5.323 2.15 3.762 0 5.849-2.42 5.849-2.42l-.189 1.174a.735.735 0 0 0 .725.852h3.807c.605 0 1.116-.439 1.212-1.036L86.73 18.43a.733.733 0 0 0-.724-.85Zm-5.89 8.225c-.409 2.414-2.325 4.035-4.769 4.035-1.227 0-2.207-.394-2.837-1.14-.624-.74-.862-1.794-.663-2.968.38-2.394 2.329-4.068 4.735-4.068 1.2 0 2.176.4 2.818 1.151.644.76.9 1.821.715 2.99ZM108.513 17.58h-4.247a1.23 1.23 0 0 0-1.015.539l-5.857 8.627-2.483-8.29a1.23 1.23 0 0 0-1.176-.875h-4.173a.736.736 0 0 0-.698.973L93.54 32.28l-4.397 6.208a.735.735 0 0 0 .6 1.16h4.241c.403 0 .78-.195 1.008-.526l14.124-20.387a.735.735 0 0 0-.604-1.154Z" fill="#253B80"/><path d="M122.571 9.418h-8.825c-.603 0-1.116.439-1.211 1.035l-3.569 22.628a.734.734 0 0 0 .725.85h4.529a.858.858 0 0 0 .847-.726l1.013-6.414a1.225 1.225 0 0 1 1.21-1.036h2.792c5.815 0 9.168-2.813 10.046-8.387.396-2.44.015-4.355-1.127-5.697-1.253-1.474-3.476-2.253-6.43-2.253Zm1.019 8.265c-.482 3.166-2.901 3.166-5.242 3.166h-1.33l.935-5.914a.734.734 0 0 1 .726-.62h.61c1.592 0 3.097 0 3.873.908.464.542.604 1.347.428 2.46ZM148.946 17.58h-4.223a.732.732 0 0 0-.725.621l-.187 1.182-.297-.428c-.915-1.328-2.953-1.772-4.99-1.772-4.669 0-8.656 3.537-9.433 8.498-.403 2.475.169 4.841 1.573 6.492 1.29 1.517 3.13 2.15 5.322 2.15 3.763 0 5.849-2.42 5.849-2.42l-.188 1.174a.736.736 0 0 0 .728.852h3.805c.603 0 1.116-.439 1.21-1.036l2.285-14.463a.737.737 0 0 0-.729-.85Zm-5.89 8.225c-.405 2.414-2.324 4.035-4.768 4.035-1.224 0-2.207-.394-2.837-1.14-.625-.74-.859-1.794-.663-2.968.383-2.394 2.329-4.068 4.735-4.068 1.2 0 2.176.4 2.818 1.151.647.76.902 1.821.715 2.99ZM153.928 10.038l-3.622 23.043a.734.734 0 0 0 .725.849h3.642c.605 0 1.118-.439 1.211-1.036l3.572-22.627a.735.735 0 0 0-.725-.85h-4.078a.737.737 0 0 0-.725.621Z" fill="#179BD7"/><path d="m9.374 38.328.675-4.287-1.504-.035H1.367l4.989-31.63a.407.407 0 0 1 .405-.346h12.103c4.018 0 6.79.837 8.239 2.487.678.774 1.11 1.583 1.32 2.474.219.934.223 2.05.009 3.411l-.016.1v.872l.679.384c.572.304 1.026.65 1.374 1.048.58.662.956 1.504 1.115 2.5.164 1.027.11 2.247-.159 3.63-.31 1.589-.81 2.974-1.486 4.106a8.447 8.447 0 0 1-2.355 2.581c-.898.637-1.965 1.121-3.172 1.431-1.169.305-2.502.458-3.963.458h-.943c-.673 0-1.327.243-1.84.677a2.85 2.85 0 0 0-.96 1.714l-.072.386-1.192 7.555-.054.277c-.014.088-.039.132-.075.161a.2.2 0 0 1-.124.046H9.374Z" fill="#253B80"/><path d="M29.739 10.602c-.036.232-.078.468-.124.71-1.596 8.195-7.057 11.026-14.031 11.026h-3.551c-.853 0-1.572.62-1.704 1.46L8.51 35.33l-.514 3.268a.909.909 0 0 0 .896 1.05h6.298c.746 0 1.38-.541 1.497-1.277l.062-.32 1.186-7.525.076-.413a1.515 1.515 0 0 1 1.497-1.28h.942c6.102 0 10.878-2.477 12.275-9.646.583-2.995.28-5.496-1.262-7.254a6.021 6.021 0 0 0-1.724-1.33Z" fill="#179BD7"/><path d="M28.069 9.937a12.6 12.6 0 0 0-1.552-.345 19.72 19.72 0 0 0-3.13-.228H13.9a1.512 1.512 0 0 0-1.495 1.28l-2.019 12.782-.058.373a1.724 1.724 0 0 1 1.705-1.461h3.55c6.975 0 12.435-2.832 14.032-11.026.047-.242.087-.479.123-.71a8.51 8.51 0 0 0-1.312-.553 11.665 11.665 0 0 0-.357-.112Z" fill="#222D65"/><path d="M12.405 10.644a1.508 1.508 0 0 1 1.496-1.279h9.486c1.124 0 2.173.073 3.13.228a12.593 12.593 0 0 1 1.911.455c.471.157.909.341 1.313.554.474-3.028-.004-5.09-1.642-6.957C26.294 1.589 23.036.709 18.867.709H6.764a1.73 1.73 0 0 0-1.71 1.462L.013 34.126a1.04 1.04 0 0 0 1.026 1.203H8.51l1.876-11.903 2.018-12.782Z" fill="#253B80"/></g><defs><clipPath id="a"><path fill="#fff" transform="translate(0 .71)" d="M0 0h160v42.581H0z"/></clipPath></defs></svg>