<svg width="41" height="16" fill="none" xmlns="http://www.w3.org/2000/svg"><g clip-path="url(#a)" fill-rule="evenodd" clip-rule="evenodd"><path d="M3.286 9.016c-1.082 0-2.337.517-3.018 1.054l.623 1.303c.546-.499 1.428-.92 2.223-.92.757 0 1.169.249 1.169.757 0 .345-.278.517-.796.584-1.954.25-3.487.786-3.487 2.29C0 15.272.853 16 2.175 16c.948 0 1.791-.527 2.194-1.217v1.026h1.763v-4.302c0-1.773-1.236-2.491-2.846-2.491Zm-.66 5.604c-.499 0-.748-.24-.748-.641 0-.748.833-.997 2.357-1.16.01.997-.67 1.801-1.61 1.801Zm20.128-4.301V9.207h-1.762v6.601h1.887v-3.18c0-1.514.91-1.955 1.552-1.955.25 0 .585.077.805.24l.345-1.744a2.132 2.132 0 0 0-.843-.153c-.968 0-1.581.43-1.983 1.303Zm11.584-1.303c-.997 0-1.744.594-2.137 1.159-.364-.738-1.12-1.16-2.04-1.16-.997 0-1.687.556-2.013 1.189v-.997h-1.82v6.601h1.888v-3.4c0-1.217.642-1.802 1.235-1.802.537 0 1.035.345 1.035 1.246v3.957h1.897v-3.402c0-1.236.623-1.8 1.246-1.8.498 0 1.025.363 1.025 1.235v3.966h1.887v-4.56c0-1.485-.996-2.232-2.203-2.232ZM12.8 8.719v.488H9.935v-.67c0-.872.498-1.121.93-1.121.249 0 .575.057.843.21l.584-1.331c-.345-.201-.91-.384-1.667-.384-1.207 0-2.577.68-2.577 2.817v.489H6.956v1.456h1.092v5.136h1.887v-5.145H12.8v5.145h1.887v-5.145h1.715V9.207h-1.715v-.67c0-.872.499-1.121.93-1.121.479 0 .843.21.843.21l.584-1.331s-.594-.384-1.667-.384c-1.197-.01-2.577.671-2.577 2.808Zm4.723.488h1.888v6.601h-1.888v-6.6Z" fill="#060809"/><path d="M28.522 0C23.425 0 18.883 3.535 17.6 8.086h1.849c1.073-3.391 4.723-6.361 9.073-6.361 5.288 0 9.849 4.024 9.849 10.29 0 1.408-.182 2.672-.527 3.793h1.791l.02-.057c.297-1.16.44-2.415.44-3.737C40.095 5.03 35.008 0 28.522 0Z" fill="#0FA0EA"/></g><defs><clipPath id="a"><path fill="#fff" d="M0 0h40.239v16H0z"/></clipPath></defs></svg>