<svg width="27" height="28" fill="none" xmlns="http://www.w3.org/2000/svg"><path fill-rule="evenodd" clip-rule="evenodd" d="M11.606 1.286L9.572 3.318a.878.878 0 01-.619.257h-3.2a2.678 2.678 0 00-2.678 2.678v3.2a.882.882 0 01-.257.621L.784 12.106a2.678 2.678 0 000 3.787l2.034 2.034a.878.878 0 01.257.62v3.2a2.678 2.678 0 002.678 2.677h3.2a.88.88 0 01.621.258l2.032 2.034a2.678 2.678 0 003.787 0l2.034-2.034a.878.878 0 01.62-.258h3.2a2.678 2.678 0 002.677-2.678v-3.2c0-.234.094-.455.258-.62l2.034-2.033a2.678 2.678 0 000-3.787l-2.034-2.034a.879.879 0 01-.258-.619v-3.2a2.678 2.678 0 00-2.678-2.678h-3.2a.878.878 0 01-.62-.257l-2.033-2.034a2.678 2.678 0 00-3.787 0v.002zM8.363 17.862l9-8.999 1.274 1.274-9 9-1.274-1.275zM9 9.5v1.8h1.8V9.5H9zm7.2 9H18v-1.8h-1.8v1.8z" fill="#13141A"/></svg>